<svg width="854px" height="854px" viewBox="0 0 854 854" fill="none" xmlns="http://www.w3.org/2000/svg">
    <path fill="#A238FF"
          d="M 715.882812 130.222656 C 723.777344 84.453125 735.367188 55.667969 748.203125 55.613281 L 748.230469 55.613281 C 772.164062 55.695312 791.566406 155.515625 791.566406 278.757812 C 791.566406 401.996094 772.136719 501.898438 748.175781 501.898438 C 738.351562 501.898438 729.289062 484.9375 721.988281 456.511719 C 710.453125 560.5625 686.519531 632.09375 658.8125 632.09375 C 637.375 632.09375 618.132812 589.128906 605.214844 521.363281 C 596.394531 650.238281 574.199219 741.671875 548.253906 741.671875 C 531.972656 741.671875 517.125 705.441406 506.136719 646.445312 C 492.921875 768.230469 462.390625 853.5625 426.785156 853.5625 C 391.179688 853.5625 360.597656 768.257812 347.4375 646.445312 C 336.527344 705.441406 321.683594 741.671875 305.320312 741.671875 C 279.375 741.671875 257.230469 650.238281 248.359375 521.363281 C 235.441406 589.128906 216.253906 632.09375 194.761719 632.09375 C 167.082031 632.09375 143.121094 560.59375 131.585938 456.511719 C 124.339844 485.019531 115.222656 501.898438 105.398438 501.898438 C 81.4375 501.898438 62.003906 401.996094 62.003906 278.757812 C 62.003906 155.515625 81.4375 55.613281 105.398438 55.613281 C 118.261719 55.613281 129.765625 84.480469 137.746094 130.222656 C 150.527344 51.296875 171.289062 0 194.761719 0 C 222.632812 0 246.785156 72.546875 258.210938 177.894531 C 269.390625 101.222656 286.351562 52.34375 305.347656 52.34375 C 331.96875 52.34375 354.601562 148.476562 362.988281 282.578125 C 378.753906 213.824219 401.574219 170.691406 426.839844 170.691406 C 452.105469 170.691406 474.929688 213.851562 490.667969 282.578125 C 499.082031 148.476562 521.6875 52.34375 548.308594 52.34375 C 567.277344 52.34375 584.210938 101.222656 595.445312 177.894531 C 606.84375 72.546875 630.996094 0 658.867188 0 C 682.257812 0 703.101562 51.324219 715.882812 130.222656 Z M 0 256.808594 C 0 201.71875 11.019531 157.042969 24.613281 157.042969 C 38.210938 157.042969 49.226562 201.71875 49.226562 256.808594 C 49.226562 311.898438 38.210938 356.574219 24.613281 356.574219 C 11.019531 356.574219 0 311.898438 0 256.808594 Z M 804.328125 256.808594 C 804.328125 201.71875 815.34375 157.042969 828.941406 157.042969 C 842.539062 157.042969 853.554688 201.71875 853.554688 256.808594 C 853.554688 311.898438 842.539062 356.574219 828.941406 356.574219 C 815.34375 356.574219 804.328125 311.898438 804.328125 256.808594 Z M 804.328125 256.808594 "/>

</svg>
