<svg width="1024px" height="1024px" viewBox="0 0 1024 1024" fill="none" xmlns="http://www.w3.org/2000/svg">
    <path fill="#A238FF"
          d="M 858.390625 156.144531 C 867.855469 101.265625 881.75 66.75 897.144531 66.683594 L 897.175781 66.683594 C 925.875 66.78125 949.136719 186.472656 949.136719 334.25 C 949.136719 482.019531 925.839844 601.808594 897.109375 601.808594 C 885.332031 601.808594 874.464844 581.472656 865.710938 547.386719 C 851.878906 672.148438 823.179688 757.921875 789.957031 757.921875 C 764.253906 757.921875 741.179688 706.402344 725.691406 625.148438 C 715.113281 779.675781 688.5 889.3125 657.390625 889.3125 C 637.867188 889.3125 620.066406 845.867188 606.890625 775.128906 C 591.042969 921.15625 554.4375 1023.476562 511.742188 1023.476562 C 469.050781 1023.476562 432.378906 921.191406 416.597656 775.128906 C 403.515625 845.867188 385.71875 889.3125 366.097656 889.3125 C 334.988281 889.3125 308.4375 779.675781 297.796875 625.148438 C 282.308594 706.402344 259.300781 757.921875 233.53125 757.921875 C 200.34375 757.921875 171.609375 672.1875 157.78125 547.386719 C 149.089844 581.570312 138.160156 601.808594 126.378906 601.808594 C 97.648438 601.808594 74.347656 482.019531 74.347656 334.25 C 74.347656 186.472656 97.648438 66.683594 126.378906 66.683594 C 141.804688 66.683594 155.597656 101.296875 165.167969 156.144531 C 180.492188 61.507812 205.386719 0 233.53125 0 C 266.949219 0 295.910156 86.988281 309.609375 213.308594 C 323.015625 121.371094 343.355469 62.761719 366.132812 62.761719 C 398.050781 62.761719 425.191406 178.03125 435.246094 338.828125 C 454.148438 256.390625 481.511719 204.667969 511.808594 204.667969 C 542.101562 204.667969 569.472656 256.421875 588.34375 338.828125 C 598.429688 178.03125 625.535156 62.761719 657.457031 62.761719 C 680.203125 62.761719 700.503906 121.371094 713.976562 213.308594 C 727.644531 86.988281 756.605469 0 790.023438 0 C 818.070312 0 843.0625 61.539062 858.390625 156.144531 Z M 0 307.929688 C 0 241.875 13.214844 188.304688 29.511719 188.304688 C 45.816406 188.304688 59.027344 241.875 59.027344 307.929688 C 59.027344 373.984375 45.816406 427.554688 29.511719 427.554688 C 13.214844 427.554688 0 373.984375 0 307.929688 Z M 964.441406 307.929688 C 964.441406 241.875 977.648438 188.304688 993.953125 188.304688 C 1010.257812 188.304688 1023.464844 241.875 1023.464844 307.929688 C 1023.464844 373.984375 1010.257812 427.554688 993.953125 427.554688 C 977.648438 427.554688 964.441406 373.984375 964.441406 307.929688 Z M 964.441406 307.929688"/>
</svg>
